<svg xmlns="http://www.w3.org/2000/svg" viewBox="0 0 428.73 206"><defs><style>.cls-1,.cls-5{fill:#ff1d25;}.cls-1,.cls-4,.cls-5{stroke:#000;}.cls-1,.cls-3,.cls-4,.cls-5{stroke-miterlimit:10;}.cls-1{stroke-width:20px;}.cls-2{fill:#f7931e;}.cls-3{font-size:192.2px;stroke:#ff931e;stroke-width:5px;font-family:NiagaraSolid-Reg, Niagara Solid;}.cls-4{font-size:66.59px;fill:#ff931e;font-family:Rockwell-ExtraBold, Rockwell Extra Bold;}.cls-4,.cls-5{stroke-width:3px;}</style></defs><title>Asset 1</title><g id="Layer_2" data-name="Layer 2"><g id="Layer_1-2" data-name="Layer 1"><polygon class="cls-1" points="417.36 179.5 10.08 179.5 11.37 18.5 418.65 18.5 417.36 179.5"/><polygon class="cls-2" points="408.12 170.5 127.14 170.5 127.61 40.5 408.59 40.5 408.12 170.5"/><text class="cls-3" transform="translate(12.61 165.87) scale(2.2 1)">C</text><text class="cls-4" transform="matrix(1.45, 0, -0.01, 1, 60.09, 121.52)">L</text><path class="cls-5" d="M178.31,41l.05,72.24q0,13.52-3.44,22T166,143.83q-6.59,0-10.09-14.18-2.14,7.64-4.6,10.91a7.35,7.35,0,0,1-6.06,3.27q-5.72,0-8.78-8.52t-3.07-24.55L133.36,41H146l0,65.26a38.78,38.78,0,0,0,.33,6.39q.33,1.54,1.32,1.54,1.87,0,1.86-7.42l0-65.78h12.63l0,65.26a37.14,37.14,0,0,0,.35,6.32q.34,1.62,1.34,1.62,1.87,0,1.86-7.94l0-65.26Z"/><path class="cls-5" d="M209.9,109.14H194.09a49.43,49.43,0,0,1,.13-13h5.3Q199,88,196,88q-2,0-3.18,4.37a42.4,42.4,0,0,0-1.22,11.21,45.79,45.79,0,0,0,1.19,11.54q1.19,4.41,3.11,4.41,1.56,0,3-4.12l6,18.81q-4.15,8.6-9.22,8.6-6.19,0-10.41-11T181,104.73q0-16.09,4.23-27.19t10.43-11.1q6,0,10.17,10.84T210,104Q210,105.61,209.9,109.14Z"/><path class="cls-5" d="M224,41l0,60q0,14.63,4,14.62,1.7,0,2.88-3a20.42,20.42,0,0,0,1.18-7.39A22.13,22.13,0,0,0,231,97.71q-1.12-3-2.73-3-1.14,0-2.62,2.65l0-30.28a13.11,13.11,0,0,1,2.79-.44q5.88,0,10.09,11.17t4.21,26.9q0,16.09-4.25,27.12T228,142.8q-3.12,0-6.09-3.6a28.75,28.75,0,0,1-4.9-9.7q-3.35-10.58-3.36-27.41l0-61.07Z"/><path class="cls-5" d="M264.33,41h10.43l0,61.07q0,16.83-3.33,27.41a28.71,28.71,0,0,1-4.89,9.7q-3,3.6-6.09,3.6-6.22,0-10.49-11t-4.28-27q0-15.51,4.22-26.82t10-11.32a13.46,13.46,0,0,1,2.79.44l0,30.28q-1.28-2.65-2.57-2.65-1.62,0-2.77,3.12a21.74,21.74,0,0,0-1.15,7.53,20,20,0,0,0,1.2,7.31q1.2,3.05,2.87,3,4,0,4-14.62Z"/><path class="cls-5" d="M307.61,109.14H291.81a49.43,49.43,0,0,1,.13-13h5.3Q296.67,88,293.74,88q-2,0-3.18,4.37a42.4,42.4,0,0,0-1.22,11.21,45.79,45.79,0,0,0,1.19,11.54q1.19,4.41,3.11,4.41,1.56,0,3-4.12l6,18.81q-4.15,8.6-9.22,8.6-6.19,0-10.41-11t-4.23-27.12q0-16.09,4.23-27.19t10.43-11.1q6,0,10.17,10.84T307.72,104Q307.72,105.61,307.61,109.14Z"/><path class="cls-5" d="M329.33,69.09l0,29a3,3,0,0,0-3,2.17q-.82,2.17-1,8.56-.71,21.24-6.23,30a9.32,9.32,0,0,1-8.31,4.56h-1.45l0-29.1h.47q2.51,0,3.58-2.76t1.23-9.66q.22-11.24.78-15.8a37.49,37.49,0,0,1,2.32-9q3.06-7.86,8.5-7.86Z"/><path class="cls-5" d="M364.86,141m-4.93,30.36,3.24-29.65c1.69-2.7,1.53-7.92,1.52-14l0-27.56q0-11.54-3.55-11.54-1.51,0-2.63,3a20.15,20.15,0,0,0-1.12,7,19.61,19.61,0,0,0,1.08,7q1.07,2.79,2.66,2.79h0a1.88,1.88,0,0,1,2,1.81v21.26a1.87,1.87,0,0,1-.68,1.43,5.76,5.76,0,0,1-3.64,1.59q-5,0-8.55-10.07t-3.52-24.62q0-15.73,4.19-26.53t10.34-10.8q3.26,0,6.25,3.45a24.59,24.59,0,0,1,4.69,9.26q2.85,9.63,2.86,27.93l0,24.11L370.86,170l-245-1,3-23Z"/><path class="cls-5" d="M343.16,68.06l0,73.27H332.78l0-73.27ZM338,35.35q2.12,0,3.67,3.93a25.36,25.36,0,0,1,1.55,9.3A25.69,25.69,0,0,1,341.72,58q-1.46,3.68-3.75,3.67T334.22,58a25.73,25.73,0,0,1-1.47-9.41,25.34,25.34,0,0,1,1.54-9.3Q335.83,35.35,338,35.35Z"/><path class="cls-5" d="M407.05,171.5H394.58l0-72.45q0-11.07-2.37-11.07t-2.33,11.07l0,72.45H377.4l0-71.55q0-25.09,4.28-42.27T392.18,40.5q7.14,0,11.45,19.95Q407,76,407,103.81Z"/></g></g></svg>