<svg xmlns="http://www.w3.org/2000/svg" xmlns:xlink="http://www.w3.org/1999/xlink" viewBox="0 0 500 500"><defs><style>.cls-1{fill:url(#linear-gradient);}.cls-2{fill:#fff;}</style><linearGradient id="linear-gradient" x1="-55.92" y1="289.38" x2="-27.79" y2="318" gradientTransform="matrix(15.62, 0, 0, -15.62, 902.99, 4995.58)" gradientUnits="userSpaceOnUse"><stop offset="0" stop-color="#070135"/><stop offset="1" stop-color="#612d50"/></linearGradient></defs><title>Asset 1</title><g id="Layer_2" data-name="Layer 2"><g id="svg2"><g id="layer1"><path id="rect3050" class="cls-1" d="M80.77,0H419.23A80.6,80.6,0,0,1,500,80.44V419.56A80.6,80.6,0,0,1,419.23,500H80.77A80.6,80.6,0,0,1,0,419.56V80.44A80.6,80.6,0,0,1,80.77,0Z"/><g id="text3836"><path id="path3841" class="cls-2" d="M253.78,215.25q19.15,0,29-8.3t9.89-24.48q0-16-9.89-24.27-9.89-8.51-29-8.51H208.94v65.55h44.83m2.74,135.47q24.42,0,36.62-10.17,12.42-10.16,12.42-30.7,0-20.12-12.21-30.08-12.21-10.16-36.83-10.17H208.94v81.11h47.57m75.35-111.4q26.1,7.47,40.41,27.59t14.31,49.37q0,44.81-30.73,66.8t-93.45,22H127.91V95.34H249.57q65.46,0,94.72,19.5,29.47,19.5,29.47,62.44,0,22.61-10.73,38.59-10.73,15.77-31.15,23.44"/></g></g></g></g></svg>