<svg xmlns="http://www.w3.org/2000/svg" viewBox="0 0 500 500"><defs><style>.cls-1{fill:#1572b6;}.cls-2{fill:#33a9dc;}.cls-3{fill:#fff;}.cls-4{fill:#ebebeb;}</style></defs><title>Asset 4</title><g id="Layer_2" data-name="Layer 2"><g id="svg2"><path id="path11" class="cls-1" d="M45.56,450,0,0H500L454.44,449.9,249.66,500Z"/><path id="path13" class="cls-2" d="M250,392.86l98.4-27.3,23.2-259.4H250v286.7Z"/><g id="Group"><path id="path16" class="cls-3" d="M250,216.16h49.3L302.7,178H250V140.79h93.4l-.9,10-9.2,102.58H250Z"/><path id="path18" class="cls-4" d="M250.22,312.86l-.16.1-41.47-11.2-2.66-29.7H168.55l5.22,58.4L250,351.66l.17-.1v-38.7Z"/><path id="path20" class="cls-3" d="M296.1,251.86l-4.5,49.8-41.51,11.2v38.8l76.31-21.2.6-6.3,6.5-72.3Z"/><path id="path22" class="cls-4" d="M250.13,140.79V178h-90l-.75-8.37-1.7-18.87-.89-10h93.29Z"/><path id="path24" class="cls-4" d="M250,216.16v37.2H209l-.75-8.3-1.69-18.91-.89-10Z"/></g></g></g></svg>